<mxfile host="app.diagrams.net" agent="Mozilla/5.0 (Windows NT 10.0; Win64; x64) AppleWebKit/537.36 (KHTML, like Gecko) Chrome/138.0.0.0 Safari/537.36" version="26.2.14">
  <diagram name="Page-1" id="rH1med3Fhj61jne7CHSq">
    <mxGraphModel dx="1077" dy="580" grid="1" gridSize="10" guides="1" tooltips="1" connect="1" arrows="1" fold="1" page="1" pageScale="1" pageWidth="850" pageHeight="1100" math="0" shadow="0">
      <root>
        <mxCell id="0" />
        <mxCell id="1" parent="0" />
        <mxCell id="vx-hwnc9y7d4CE3KsJbM-9" value="" style="edgeStyle=orthogonalEdgeStyle;rounded=0;orthogonalLoop=1;jettySize=auto;html=1;" edge="1" parent="1" source="vx-hwnc9y7d4CE3KsJbM-1" target="vx-hwnc9y7d4CE3KsJbM-2">
          <mxGeometry relative="1" as="geometry" />
        </mxCell>
        <mxCell id="vx-hwnc9y7d4CE3KsJbM-1" value="User input" style="ellipse;whiteSpace=wrap;html=1;" vertex="1" parent="1">
          <mxGeometry x="350" y="30" width="120" height="80" as="geometry" />
        </mxCell>
        <mxCell id="vx-hwnc9y7d4CE3KsJbM-10" value="" style="edgeStyle=orthogonalEdgeStyle;rounded=0;orthogonalLoop=1;jettySize=auto;html=1;" edge="1" parent="1" source="vx-hwnc9y7d4CE3KsJbM-2" target="vx-hwnc9y7d4CE3KsJbM-3">
          <mxGeometry relative="1" as="geometry" />
        </mxCell>
        <mxCell id="vx-hwnc9y7d4CE3KsJbM-2" value="Is Chatbot Initialized?" style="rhombus;whiteSpace=wrap;html=1;" vertex="1" parent="1">
          <mxGeometry x="325" y="150" width="170" height="150" as="geometry" />
        </mxCell>
        <mxCell id="vx-hwnc9y7d4CE3KsJbM-11" style="edgeStyle=orthogonalEdgeStyle;rounded=0;orthogonalLoop=1;jettySize=auto;html=1;exitX=1;exitY=0.5;exitDx=0;exitDy=0;entryX=0.5;entryY=0;entryDx=0;entryDy=0;" edge="1" parent="1" source="vx-hwnc9y7d4CE3KsJbM-3" target="vx-hwnc9y7d4CE3KsJbM-4">
          <mxGeometry relative="1" as="geometry" />
        </mxCell>
        <mxCell id="vx-hwnc9y7d4CE3KsJbM-12" style="edgeStyle=orthogonalEdgeStyle;rounded=0;orthogonalLoop=1;jettySize=auto;html=1;exitX=0;exitY=0.5;exitDx=0;exitDy=0;entryX=0.5;entryY=0;entryDx=0;entryDy=0;" edge="1" parent="1" source="vx-hwnc9y7d4CE3KsJbM-3" target="vx-hwnc9y7d4CE3KsJbM-5">
          <mxGeometry relative="1" as="geometry" />
        </mxCell>
        <mxCell id="vx-hwnc9y7d4CE3KsJbM-3" value="Classify Query" style="rounded=0;whiteSpace=wrap;html=1;" vertex="1" parent="1">
          <mxGeometry x="350" y="330" width="120" height="60" as="geometry" />
        </mxCell>
        <mxCell id="vx-hwnc9y7d4CE3KsJbM-14" style="edgeStyle=orthogonalEdgeStyle;rounded=0;orthogonalLoop=1;jettySize=auto;html=1;exitX=0.5;exitY=1;exitDx=0;exitDy=0;entryX=0.5;entryY=0;entryDx=0;entryDy=0;" edge="1" parent="1" source="vx-hwnc9y7d4CE3KsJbM-4" target="vx-hwnc9y7d4CE3KsJbM-7">
          <mxGeometry relative="1" as="geometry" />
        </mxCell>
        <mxCell id="vx-hwnc9y7d4CE3KsJbM-4" value="Genral /Business query" style="rounded=0;whiteSpace=wrap;html=1;" vertex="1" parent="1">
          <mxGeometry x="500" y="410" width="120" height="60" as="geometry" />
        </mxCell>
        <mxCell id="vx-hwnc9y7d4CE3KsJbM-13" style="edgeStyle=orthogonalEdgeStyle;rounded=0;orthogonalLoop=1;jettySize=auto;html=1;exitX=0.5;exitY=1;exitDx=0;exitDy=0;" edge="1" parent="1" source="vx-hwnc9y7d4CE3KsJbM-5" target="vx-hwnc9y7d4CE3KsJbM-6">
          <mxGeometry relative="1" as="geometry" />
        </mxCell>
        <mxCell id="vx-hwnc9y7d4CE3KsJbM-5" value="Stock /Date query" style="rounded=0;whiteSpace=wrap;html=1;" vertex="1" parent="1">
          <mxGeometry x="210" y="410" width="120" height="60" as="geometry" />
        </mxCell>
        <mxCell id="vx-hwnc9y7d4CE3KsJbM-16" style="edgeStyle=orthogonalEdgeStyle;rounded=0;orthogonalLoop=1;jettySize=auto;html=1;exitX=0.5;exitY=1;exitDx=0;exitDy=0;entryX=0.5;entryY=0;entryDx=0;entryDy=0;" edge="1" parent="1" source="vx-hwnc9y7d4CE3KsJbM-6" target="vx-hwnc9y7d4CE3KsJbM-8">
          <mxGeometry relative="1" as="geometry" />
        </mxCell>
        <mxCell id="vx-hwnc9y7d4CE3KsJbM-6" value="Process and return stats&lt;span style=&quot;color: rgba(0, 0, 0, 0); font-family: monospace; font-size: 0px; text-align: start; text-wrap-mode: nowrap;&quot;&gt;%3CmxGraphModel%3E%3Croot%3E%3CmxCell%20id%3D%220%22%2F%3E%3CmxCell%20id%3D%221%22%20parent%3D%220%22%2F%3E%3CmxCell%20id%3D%222%22%20value%3D%22Classify%20Query%22%20style%3D%22rounded%3D0%3BwhiteSpace%3Dwrap%3Bhtml%3D1%3B%22%20vertex%3D%221%22%20parent%3D%221%22%3E%3CmxGeometry%20x%3D%22365%22%20y%3D%22330%22%20width%3D%22120%22%20height%3D%2260%22%20as%3D%22geometry%22%2F%3E%3C%2FmxCell%3E%3C%2Froot%3E%3C%2FmxGraphModel%3E&lt;/span&gt;" style="rounded=0;whiteSpace=wrap;html=1;" vertex="1" parent="1">
          <mxGeometry x="210" y="520" width="120" height="60" as="geometry" />
        </mxCell>
        <mxCell id="vx-hwnc9y7d4CE3KsJbM-15" style="edgeStyle=orthogonalEdgeStyle;rounded=0;orthogonalLoop=1;jettySize=auto;html=1;exitX=0.5;exitY=1;exitDx=0;exitDy=0;entryX=0.5;entryY=0;entryDx=0;entryDy=0;" edge="1" parent="1" source="vx-hwnc9y7d4CE3KsJbM-7" target="vx-hwnc9y7d4CE3KsJbM-8">
          <mxGeometry relative="1" as="geometry" />
        </mxCell>
        <mxCell id="vx-hwnc9y7d4CE3KsJbM-7" value="Summary answer" style="rounded=0;whiteSpace=wrap;html=1;" vertex="1" parent="1">
          <mxGeometry x="500" y="520" width="120" height="60" as="geometry" />
        </mxCell>
        <mxCell id="vx-hwnc9y7d4CE3KsJbM-8" value="Display answer" style="rounded=0;whiteSpace=wrap;html=1;" vertex="1" parent="1">
          <mxGeometry x="365" y="650" width="120" height="60" as="geometry" />
        </mxCell>
      </root>
    </mxGraphModel>
  </diagram>
</mxfile>
